<?xml version="1.0" encoding="UTF-8"?>
<svg width="20px" height="31px" viewBox="0 0 20 31" version="1.1" xmlns="http://www.w3.org/2000/svg" xmlns:xlink="http://www.w3.org/1999/xlink">
    <!-- Generator: sketchtool 41 (35326) - http://www.bohemiancoding.com/sketch -->
    <title>3FF8A176-749E-4CA7-99A5-1E66C3C5F1F8</title>
    <desc>Created with sketchtool.</desc>
    <defs></defs>
    <g id="sticker-sheet-/-style-guide" stroke="none" stroke-width="1" fill="none" fill-rule="evenodd">
        <g id="assets" transform="translate(-493.000000, -542.000000)" fill="#FFFFFF">
            <g id="twitter" transform="translate(493.000000, 542.000000)">
                <g transform="translate(0.000000, 7.000000)" id="Page-1">
                    <path d="M19.453144,2.27353539 C18.7376179,2.59115447 17.9679213,2.80597938 17.160722,2.9019206 C17.9848867,2.40761474 18.6173714,1.62548522 18.9159041,0.69199502 C18.1447193,1.14995048 17.2901954,1.4821693 16.381501,1.66123971 C15.6534739,0.885069278 14.6161991,0.4 13.467607,0.4 C11.2638817,0.4 9.47655455,2.18921438 9.47655455,4.39526656 C9.47655455,4.70841632 9.51197369,5.01322336 9.58043085,5.30581429 C6.26353258,5.13925795 3.32255342,3.54877895 1.35396359,1.13088141 C1.01048722,1.72083053 0.813449656,2.40761474 0.813449656,3.13968797 C0.813449656,4.5254725 1.51855841,5.74887204 2.58887124,6.4651537 C1.93495654,6.44459487 1.31913973,6.26492855 0.781304554,5.96488877 C0.781006914,5.98187215 0.781006914,5.99885553 0.781006914,6.01554096 C0.781006914,7.95134877 2.15729349,9.56596205 3.98271857,9.93274355 C3.6481714,10.0245134 3.29487292,10.0730799 2.93145469,10.0730799 C2.67369859,10.0730799 2.42397878,10.0483497 2.1805094,10.0018689 C2.68828295,11.5887724 4.16189774,12.7439405 5.90874591,12.7764175 C4.54257909,13.8481584 2.82192323,14.486674 0.951554537,14.486674 C0.63010352,14.486674 0.311628902,14.4679029 0,14.4306587 C1.76530183,15.564672 3.86366263,16.2258321 6.11739143,16.2258321 C13.4583802,16.2258321 17.4729462,10.1380339 17.4729462,4.85798928 C17.4729462,4.68487794 17.4690769,4.51236252 17.4613383,4.34133686 C18.2417499,3.77820361 18.9182852,3.07473398 19.453144,2.27353539"></path>
                </g>
            </g>
        </g>
    </g>
</svg>