<?xml version="1.0" encoding="UTF-8"?>
<svg width="21px" height="30px" viewBox="0 0 21 30" version="1.1" xmlns="http://www.w3.org/2000/svg" xmlns:xlink="http://www.w3.org/1999/xlink">
    <!-- Generator: sketchtool 41 (35326) - http://www.bohemiancoding.com/sketch -->
    <title>91FCD561-185C-45A5-90F1-6B461CD648CA</title>
    <desc>Created with sketchtool.</desc>
    <defs></defs>
    <g id="sticker-sheet-/-style-guide" stroke="none" stroke-width="1" fill="none" fill-rule="evenodd">
        <g id="assets" transform="translate(-576.000000, -542.000000)" fill="#FFFFFF">
            <g id="dribbble" transform="translate(576.000000, 542.000000)">
                <g transform="translate(0.000000, 5.000000)" id="Page-1">
                    <path d="M15.3012102,16.6422133 C15.1901299,16.0039278 14.7436088,13.6709793 13.7130911,10.8255307 C14.2910389,10.7355267 14.8533144,10.7000205 15.3806711,10.7000205 C17.1125898,10.7000205 18.4672752,11.0795788 18.7820945,11.1759134 C18.4078857,13.4353724 17.1156143,15.3906893 15.3012102,16.6422133 M10.6077903,18.1023704 C8.70732645,18.1023704 6.95341166,17.4580296 5.55390919,16.377706 C5.79064232,15.9130981 7.50881343,12.8163539 12.0474357,11.2350904 C12.0501852,11.2339894 12.0532097,11.2328884 12.0565091,11.2320627 C13.1945328,14.1980671 13.6765226,16.6873529 13.8087742,17.4588554 C12.8238984,17.8733693 11.7422397,18.1023704 10.6077903,18.1023704 M2.32158088,9.8189719 C2.32158088,9.75071196 2.32268069,9.68245202 2.3248803,9.61446732 C2.37437154,9.61501781 2.44750861,9.61501781 2.54236683,9.61501781 C3.57068496,9.61501781 7.14010364,9.52996813 10.8184031,8.43725863 C11.0416636,8.87434243 11.254201,9.31803203 11.451891,9.76144639 C11.3589575,9.78814483 11.2673987,9.81484327 11.1763898,9.84456937 C7.03479727,11.1836202 4.75847487,14.7284578 4.40818683,15.3078416 C3.11041636,13.8441063 2.32158088,11.9223689 2.32158088,9.8189719 M7.04854483,2.3387286 C7.33421931,2.73259946 8.75296838,4.71461484 10.0804336,7.06380262 C6.51788869,8.0012758 3.35429823,8.06237946 2.59075827,8.06237946 L2.50964762,8.06237946 C3.0581756,5.5318074 4.76617351,3.42896092 7.04854483,2.3387286 M10.6077903,1.53502288 C12.6976957,1.53502288 14.6080578,2.3123054 16.0672247,3.59245448 C15.8362656,3.90788145 14.5835871,5.47538285 11.7876066,6.53286141 C10.4934105,4.16468195 9.07686109,2.20358494 8.73977071,1.74833519 C9.34053945,1.60906289 9.96577887,1.53502288 10.6077903,1.53502288 M17.0617238,4.62818895 C18.180501,6.01623277 18.8604557,7.76924706 18.8918001,9.67942436 C18.519516,9.60290717 16.9429448,9.30867381 15.058978,9.30867381 C14.4510606,9.30867381 13.8112487,9.33922564 13.1697872,9.41849524 C13.1156218,9.28665448 13.0614563,9.15536419 13.0045414,9.0226977 C12.8381958,8.63102878 12.6589275,8.24238752 12.4733354,7.85952634 C15.3729725,6.66360121 16.7716501,5.00389385 17.0617238,4.62818895 M10.6077903,0 C5.19977182,0 0.8,4.39918786 0.8,9.80603554 C0.8,15.2128832 5.19977182,19.6117958 10.6077903,19.6117958 C16.0160838,19.6117958 20.4161305,15.2131585 20.4161305,9.80603554 C20.4161305,4.39918786 16.0160838,0 10.6077903,0"></path>
                </g>
            </g>
        </g>
    </g>
</svg>