<?xml version="1.0" encoding="UTF-8"?>
<svg width="19px" height="30px" viewBox="0 0 19 30" version="1.1" xmlns="http://www.w3.org/2000/svg" xmlns:xlink="http://www.w3.org/1999/xlink">
    <!-- Generator: sketchtool 41 (35326) - http://www.bohemiancoding.com/sketch -->
    <title>47DDF1E1-DF31-4BA8-B3F5-0312D8412C64</title>
    <desc>Created with sketchtool.</desc>
    <defs></defs>
    <g id="sticker-sheet-/-style-guide" stroke="none" stroke-width="1" fill="none" fill-rule="evenodd">
        <g id="assets" transform="translate(-534.000000, -541.000000)" fill="#FFFFFF">
            <g id="linkedin" transform="translate(534.000000, 541.000000)">
                <g transform="translate(0.000000, 6.000000)" id="Fill-3">
                    <path d="M1.02623721,17.784286 L4.83139382,17.784286 L4.83139382,6.32408432 L1.02623721,6.32408432 L1.02623721,17.784286 Z M2.95393721,0.8 C1.65186684,0.8 0.8,1.65560792 0.8,2.77974771 C0.8,3.880018 1.62717093,4.7603479 2.90397768,4.7603479 L2.92867358,4.7603479 C4.25629144,4.7603479 5.08175921,3.880018 5.08175921,2.77974771 C5.05649558,1.65560792 4.25629144,0.8 2.95393721,0.8 L2.95393721,0.8 Z M18.5549374,11.2122169 L18.5549374,17.784286 L14.7486453,17.784286 L14.7486453,11.6526661 C14.7486453,10.1130833 14.1990904,9.06168865 12.8209453,9.06168865 C11.7692403,9.06168865 11.1444623,9.76953299 10.8685494,10.4549286 C10.7683465,10.6998752 10.7425151,11.0400156 10.7425151,11.3835659 L10.7425151,17.7840018 L6.93593921,17.7840018 C6.93593921,17.7840018 6.98703419,7.3990643 6.93593921,6.32408432 L10.742799,6.32408432 L10.742799,7.94806281 C10.7351347,7.96085004 10.724348,7.97335311 10.7175354,7.98557202 L10.742799,7.98557202 L10.742799,7.94806281 C11.2486393,7.16889412 12.1507495,6.05498412 14.1732591,6.05498412 C16.6774808,6.05498412 18.5549374,7.69288648 18.5549374,11.2122169 L18.5549374,11.2122169 Z"></path>
                </g>
            </g>
        </g>
    </g>
</svg>