<?xml version="1.0" encoding="utf-8"?>
<!-- Generator: Adobe Illustrator 21.1.0, SVG Export Plug-In . SVG Version: 6.00 Build 0)  -->
<svg version="1.1" id="Icons" xmlns="http://www.w3.org/2000/svg" xmlns:xlink="http://www.w3.org/1999/xlink" x="0px" y="0px"
	 viewBox="0 0 100 100" style="enable-background:new 0 0 100 100;" xml:space="preserve">
<style type="text/css">
	.st0{fill:#FFFFFF;}
</style>
<path id="RSS" class="st0" d="M25.4,74.6c2.2,2.2,3.5,5.1,3.5,8.4c0,3.3-1.3,6.2-3.5,8.4l0,0c-2.2,2.2-5.1,3.5-8.5,3.5
	c-3.3,0-6.3-1.3-8.4-3.5C6.3,89.2,5,86.3,5,83c0-3.3,1.3-6.2,3.5-8.4v0c2.2-2.2,5.1-3.5,8.4-3.5C20.3,71.1,23.2,72.4,25.4,74.6z
	 M25.4,74.6L25.4,74.6C25.4,74.6,25.4,74.6,25.4,74.6L25.4,74.6z M8.5,91.4C8.5,91.4,8.5,91.4,8.5,91.4C8.5,91.4,8.5,91.4,8.5,91.4
	L8.5,91.4z M5,35.6v17.2c11.2,0,21.8,4.4,29.8,12.4c7.9,7.9,12.3,18.6,12.3,29.8h0v0h17.3c0-16.4-6.7-31.2-17.4-42
	C36.2,42.3,21.4,35.6,5,35.6z M5,5v17.2c40.1,0,72.7,32.7,72.7,72.8H95c0-24.8-10.1-47.3-26.4-63.6C52.3,15.1,29.8,5,5,5z"/>
</svg>
